<svg xmlns="http://www.w3.org/2000/svg" data-name="Layer 1" viewBox="0 0 512 512"><path d="M435.73193,117.419a7.49977,7.49977,0,0,0,0-14.51954,55.05771,55.05771,0,0,1-39.45556-39.45507,7.4996,7.4996,0,0,0-14.51953,0,54.96622,54.96622,0,0,1-12.31067,22.92334A110.8054,110.8054,0,0,0,330.813,79.46c-17.47461.124-31.07178,9.65625-43.06787,18.06738-5.60645,3.93067-10.90235,7.64356-16.376,10.38477-10.36523,5.19238-19.1499,5.66113-29.37353,1.57031-7.61768-3.04883-13.92481-7.5664-20.60254-12.34863-10.97266-7.85938-22.31836-15.98633-39.45264-17.23926-20.51709-1.499-43.6499,5.29395-63.47314,18.63867-26.4712,17.81739-43.65723,50.28418-47.15186,89.07422A145.83024,145.83024,0,0,0,74.98,237.53418c2.85693,10.96191,7.81982,21.12012,12.61914,30.94336,4.39063,8.98633,8.53809,17.47461,11.17529,26.47461,5.24366,17.89648,4.57666,35.67578,3.8711,54.499-.26026,6.93653-.5293,14.11035-.48926,21.34668.23,41.34766.51611,92.80762,33.47754,122.53223,10.54785,9.51269,25.93848,18.63672,39.84717,18.63574a26.46023,26.46023,0,0,0,11.3667-2.417c12.645-5.94434,14.62109-19.21973,17.356-37.59375a340.87285,340.87285,0,0,1,6.72412-35.35254c.81446-3.21289,1.63282-6.7207,2.499-10.43359,5.519-23.65333,13.85937-59.39942,35.023-67.44336,6.1582-2.33789,11.61523-2.1836,16.68457.47753,19.34521,10.15528,29.63476,52.05958,34.57959,72.19727.46679,1.90137.89551,3.64649,1.29,5.20313a340.87055,340.87055,0,0,1,6.72412,35.35253c2.73486,18.374,4.71093,31.64942,17.356,37.5918,16.12549,7.582,37.66553-3.999,51.21387-16.21777,32.96143-29.72461,33.24756-81.18262,33.47754-122.5293.03418-6.1416-.03906-12.13281-.10937-17.92578-.37452-30.6875-.69727-57.19043,14.99951-85.61426,24.26147-43.93262,21.7525-103.7456-5.09156-142.71533A54.92673,54.92673,0,0,1,435.73193,117.419ZM376.46008,100.6394c.08344-.07788.16571-.15649.24579-.238A70.13391,70.13391,0,0,0,389.0166,84.84961a70.16669,70.16669,0,0,0,25.30957,25.30957,70.04786,70.04786,0,0,0-9.887,6.97656c-.01489.01172-.03082.02124-.04566.03321-.046.0371-.08575.07885-.13061.11669a70.15566,70.15566,0,0,0-15.24634,18.18311A70.16661,70.16661,0,0,0,363.707,110.15918,70.10712,70.10712,0,0,0,376.46008,100.6394Zm49.71814,91.80689c1.21875,24.26269-3.98193,48.25683-14.64355,67.5625-17.61328,31.89453-17.251,61.59961-16.86768,93.04883.06983,5.72754.14209,11.65136.1084,17.65918-.21338,38.39746-.479,86.18359-28.52344,111.47461-10.64843,9.60254-26.45947,17.69531-34.78759,13.78125-5.15479-2.42188-6.45362-9.79-8.89991-26.22559A353.52081,353.52081,0,0,0,315.544,432.919c-.38575-1.52442-.80567-3.2334-1.2627-5.09473-5.88721-23.97656-16.8457-68.60645-42.1748-81.90234-8.96924-4.709-18.7212-5.11622-28.98584-1.21778-28.62793,10.88086-37.687,49.707-44.30176,78.05664-.84961,3.6416-1.65235,7.082-2.43115,10.15625a353.626,353.626,0,0,0-7.02051,36.8291c-2.44629,16.43555-3.74512,23.80371-8.90039,26.22754-8.32959,3.91407-24.13868-4.17968-34.78711-13.78222-28.04444-25.291-28.31006-73.07911-28.52344-111.47754-.03857-6.91309.22412-13.92285.47852-20.70117.71972-19.19336,1.46386-39.04-4.46582-59.27735-2.99512-10.22265-7.62012-19.68847-12.09229-28.84277-4.68164-9.582-9.10352-18.63184-11.58105-28.1416a130.90982,130.90982,0,0,1-3.24073-44.79786c3.08741-34.2705,17.88135-62.69238,40.58838-77.97656,17.09131-11.50488,36.769-17.38476,54.00342-16.12109,12.9248.94433,21.67725,7.21387,31.812,14.47265,7.10938,5.0918,14.46045,10.35743,23.76319,14.08008,14.22167,5.69141,27.4624,5.0293,41.665-2.084,6.46192-3.23731,12.46436-7.44531,18.269-11.51563,11.19238-7.84668,21.76416-15.25781,34.56347-15.34863.20118-.00195.40088-.00195.60205-.00195a93.75015,93.75015,0,0,1,23.83759,3.188,54.92442,54.92442,0,0,1-13.0578,5.25341,7.49977,7.49977,0,0,0,0,14.51954A55.05855,55.05855,0,0,1,381.75684,156.874a7.4996,7.4996,0,0,0,14.51953,0,54.96994,54.96994,0,0,1,11.89129-22.46045C418.74609,150.35425,425.08319,170.63477,426.17822,192.44629ZM135.83594,243.67578a7.50008,7.50008,0,1,0-14.95508,1.16211,81.3585,81.3585,0,0,0,2.05518,12.88965,7.4998,7.4998,0,1,0,14.57421-3.54688A66.29233,66.29233,0,0,1,135.83594,243.67578ZM491.38232,30.9502a35.3497,35.3497,0,0,1-25.33252-25.332,7.49976,7.49976,0,0,0-14.51953-.001,35.35,35.35,0,0,1-25.333,25.333,7.49976,7.49976,0,0,0,0,14.51953,35.34993,35.34993,0,0,1,25.333,25.333,7.49976,7.49976,0,0,0,14.51953-.001,35.34967,35.34967,0,0,1,25.33252-25.332,7.49976,7.49976,0,0,0,0-14.51953ZM458.79,51.13867A50.435,50.435,0,0,0,445.86084,38.21,50.43488,50.43488,0,0,0,458.79,25.28125,50.45613,50.45613,0,0,0,471.71875,38.21,50.45629,50.45629,0,0,0,458.79,51.13867ZM170.9248,124.40234a78.52877,78.52877,0,0,0-34.90527,21.21289c-25.79443,27.41211-21.20264,64.30079-20.02,71.417a7.4999,7.4999,0,0,0,14.79688-2.459c-.979-5.89258-4.80176-36.416,16.147-58.67871a63.81849,63.81849,0,0,1,28.25293-17.11328,7.5,7.5,0,1,0-4.27149-14.37891Z"/></svg>