<svg xmlns="http://www.w3.org/2000/svg" data-name="Layer 1" viewBox="0 0 512 512"><g data-name="&lt;Group&gt;"><g data-name="&lt;Group&gt;"><path fill="#00efd1" d="M436,130.94V242.32A242.879,242.879,0,0,1,290.46,464.61l-31.73,13.83-34.27-14.81A242.387,242.387,0,0,1,76,240.17V130.72L258.33,33.56ZM409,242.32V146.93L258.15,64.25,103,146.93v93.24A215.45,215.45,0,0,0,235.06,438.8L258.68,449l20.94-9.12A215.769,215.769,0,0,0,409,242.32Z" data-name="&lt;Compound Path&gt;"/></g><g data-name="&lt;Group&gt;"><path fill="#00acea" d="M409,146.93v95.39A215.769,215.769,0,0,1,279.62,439.88L258.68,449l-23.62-10.2A215.45,215.45,0,0,1,103,240.17V146.93L258.15,64.25Zm-72.7,95.88c21.38-35.89,26.45-69.9,9.79-86.56-14.7-14.69-42.89-12.48-73.97,2.92a36.327,36.327,0,0,1-32.24,0c-31.08-15.4-59.27-17.61-73.97-2.92-16.66,16.66-11.59,50.67,9.79,86.56a15.441,15.441,0,0,1,.63,14.54,88.422,88.422,0,0,0,27.65,109.71c8.59-42.06,28.64-71.55,52.02-71.55s43.43,29.49,52.02,71.55a88.45,88.45,0,0,0,27.66-109.71,15.4,15.4,0,0,1,.62-14.54Z" data-name="&lt;Compound Path&gt;"/></g><g data-name="&lt;Group&gt;"><path fill="#00efd1" d="M346.09,156.25c16.66,16.66,11.59,50.67-9.79,86.56a15.4,15.4,0,0,0-.62,14.54,88.45,88.45,0,0,1-27.66,109.71C299.43,325,279.38,295.51,256,295.51S212.57,325,203.98,367.06a88.422,88.422,0,0,1-27.65-109.71,15.441,15.441,0,0,0-.63-14.54c-21.38-35.89-26.45-69.9-9.79-86.56,14.7-14.69,42.89-12.48,73.97,2.92a36.327,36.327,0,0,0,32.24,0C303.2,143.77,331.39,141.56,346.09,156.25Z" data-name="&lt;Path&gt;"/></g></g></svg>