<svg xmlns="http://www.w3.org/2000/svg" data-name="Layer 1" viewBox="0 0 512 512"><path d="M322.339 135.186C306.8 136.345 241 152.8 224.457 157.059a142.655 142.655 0 0 1-19.344-11.253c-8.044-5.315-14.991-9.905-23.467-10.572A89.4 89.4 0 0 0 85.718 233.89c5.307 48.292 23.4 144.277 84.979 244.535a15.3 15.3 0 0 0 27.844-4.177l6.415-24.86A152.721 152.721 0 0 1 242.609 381.9l2.141-2.23a6.591 6.591 0 0 1 9.3-.2l2.591 2.478a152.473 152.473 0 0 1 41.507 69.4l6.522 23.517a15.091 15.091 0 0 0 12.594 11.052 15.929 15.929 0 0 0 2.231.159 15.074 15.074 0 0 0 12.944-7.293c61.778-100.454 79.9-196.6 85.208-244.978a89.241 89.241 0 0 0-95.306-98.619zm79.4 96.875c-5.135 46.817-22.628 139.673-82.089 236.963l-6.088-21.952A168.469 168.469 0 0 0 267.7 370.388l-2.591-2.479a22.618 22.618 0 0 0-31.9.675l-2.142 2.23a168.75 168.75 0 0 0-41.6 74.576l-6 23.246c-59.247-97.083-76.707-189.76-81.842-236.494a73.4 73.4 0 0 1 78.767-80.958c4.358.344 9.453 3.71 15.9 7.971 17.729 11.714 44.523 29.416 105.553 21.787a8 8 0 1 0-1.985-15.876c-17.809 2.226-32.248 2.159-44.208.673 26.11-6.369 58.793-13.92 67.878-14.6a73.242 73.242 0 0 1 78.211 80.919zM341 67a8 8 0 0 0-8 8V85h-9a8 8 0 0 0 0 16h9v9a8 8 0 0 0 16 0v-9h10a8 8 0 0 0 0-16H349V75A8 8 0 0 0 341 67zM419 44H409V34a8 8 0 0 0-16 0V44h-9a8 8 0 0 0 0 16h9v9a8 8 0 0 0 16 0V60h10a8 8 0 0 0 0-16zM419 115H409V105a8 8 0 0 0-16 0v10h-9a8 8 0 0 0 0 16h9v9a8 8 0 0 0 16 0v-9h10a8 8 0 0 0 0-16z"/></svg>